<svg width="48" height="49" viewBox="0 0 48 49" fill="none" xmlns="http://www.w3.org/2000/svg">
<circle cx="19.5" cy="17.5" r="17.5" fill="#F9A557"/>
<path d="M14.9488 2.00024C16.8834 2.0143 18.951 2.64917 19.6553 4.47671C20.2222 4.65641 20.6914 4.91022 21.0174 5.21354C21.3434 5.51686 21.5151 5.8594 21.5159 6.20796C21.5149 6.72046 21.1447 7.21366 20.4801 7.58795C19.8155 7.96223 18.9061 8.18972 17.9355 8.22446C16.2064 8.64809 13.7652 7.85122 12.4362 5.76684C10.239 6.71606 7.5382 7.88989 6.90744 10.3743C5.63654 15.3791 8.78732 24.7727 10.6418 25.4087C15.9606 27.2331 21.8265 27.476 25.531 29.8706C29.8057 32.6338 32.5774 37.9027 36.4441 38.8996C39.5905 39.7108 45.8222 38.1938 46.5896 40.6583C46.7069 41.508 46.0025 42.2824 44.0589 40.6656C41.2582 41.4255 33.6888 44.1172 26.5609 38.4054C26.1111 38.6846 25.6482 38.9421 25.1738 39.1769C25.0768 41.8933 24.3821 44.8025 23.9507 47.5189H19.3897L19.8697 43.1764C19.3826 41.5848 18.7943 40.6722 18.4345 38.9438L16.7095 39.2818C16.9057 40.2832 17.0908 40.4817 17.4476 41.4388C16.4041 41.4882 15.2145 41.432 14.1376 41.3387C14.891 39.6033 15.2983 37.2821 15.689 35.7361L13.9849 35.3054C13.4461 37.4368 12.5843 40.3979 12.2287 41.1937C11.9115 41.9037 11.1249 47.5189 11.1249 47.5189H7.48986L6.75597 39.1458C3.96349 37.4936 3.03527 35.5199 2.49425 33.2655C0.603822 25.3898 0.161635 16.7861 3.2216 9.45278C5.13712 4.86245 8.82374 3.51899 12.1938 2.42055C12.9226 2.16176 13.9168 1.99272 14.9488 2.00024ZM2.80138 37.8725C3.40793 38.6282 4.16173 39.3653 5.08556 40.0476C5.27951 42.4551 5.45998 45.0901 5.65988 47.5189H2.45998C2.45998 47.5189 2.65236 41.9602 2.80138 37.8725ZM13.9905 43.0471C15.1458 43.1611 16.5004 43.1694 17.8804 43.0757L17.4079 47.5189H13.3272L13.9905 43.0471Z" fill="#C1DBDC" stroke="#3E424B"/>
<circle cx="0.5" cy="0.5" r="0.5" transform="matrix(1 0 0 -1 16 5)" fill="#3E424B"/>
</svg>
