<svg width="1080" height="980" viewBox="0 0 1080 980" fill="none" xmlns="http://www.w3.org/2000/svg">
<ellipse cx="449" cy="363.5" rx="352" ry="336.5" fill="#FDFDFD"/>
<path d="M797.5 363.5C797.5 547.264 641.621 696.5 449 696.5C256.379 696.5 100.5 547.264 100.5 363.5C100.5 179.736 256.379 30.5 449 30.5C641.621 30.5 797.5 179.736 797.5 363.5Z" stroke="black" stroke-opacity="0.24" stroke-width="7"/>
<path d="M348.792 43.9201C390.578 44.1957 435.238 56.639 450.451 92.4588C462.697 95.981 472.832 100.956 479.873 106.901C486.914 112.846 490.623 119.56 490.641 126.391C490.618 136.436 482.622 146.103 468.267 153.439C453.912 160.775 434.268 165.234 413.303 165.915C375.954 174.218 323.226 158.599 294.519 117.745C247.058 136.35 188.722 159.357 175.097 208.051C147.646 306.147 215.703 490.26 255.76 502.727C370.645 538.483 497.348 543.245 577.365 590.18C669.699 644.338 729.567 747.608 813.088 767.147C881.052 783.047 1015.66 753.314 1032.23 801.619C1034.77 818.271 1019.55 833.45 977.569 801.761C917.074 816.656 753.574 869.413 599.611 757.461C589.897 762.934 579.899 767.98 569.652 772.583C567.555 825.824 552.551 882.844 543.232 936.086H444.713L455.083 850.973C444.561 819.778 431.852 801.891 424.081 768.014L386.821 774.638C391.059 794.267 395.059 798.156 402.764 816.916C380.225 817.885 354.529 816.782 331.269 814.954C347.543 780.939 356.339 735.444 364.779 705.143L327.97 696.701C316.332 738.476 297.717 796.514 290.037 812.112C283.186 826.027 266.195 936.086 266.195 936.086H187.677L171.826 771.974C111.508 739.59 91.4583 700.905 79.7723 656.719C38.9391 502.355 29.3878 333.723 95.483 189.99C136.858 100.019 216.489 73.6876 289.282 52.1582C305.024 47.0859 326.497 43.7727 348.789 43.9201H348.792ZM86.4064 747.016C99.5077 761.827 115.79 776.275 135.745 789.648C139.934 836.836 143.832 888.481 148.15 936.086H79.032C79.032 936.086 83.1875 827.133 86.4064 747.015V747.016ZM328.092 848.439C353.046 850.672 382.305 850.835 412.113 849L401.908 936.086H313.763L328.092 848.439Z" fill="#FDFDFD" stroke="#3E424B" stroke-opacity="0.28" stroke-width="10"/>
<ellipse cx="399.5" cy="84" rx="8.5" ry="9" fill="#3E424B" fill-opacity="0.28"/>
</svg>
