<svg width="184" height="54" viewBox="0 0 184 54" fill="none" xmlns="http://www.w3.org/2000/svg">
<path d="M40.92 41.784C40.92 40.568 41.208 38.424 41.784 35.352C42.36 32.28 42.712 30.3387 42.84 29.528L41.144 26.104C43.8533 24.568 46.1573 23.8 48.056 23.8C48.9947 23.8 49.6987 24.12 50.168 24.76C51.9387 24.1413 53.5707 23.832 55.064 23.832C57.8373 23.832 59.992 24.7387 61.528 26.552C63.064 28.344 63.832 30.584 63.832 33.272C63.832 36.8133 62.5307 40.0667 59.928 43.032C58.6693 44.4613 57.0053 45.6133 54.936 46.488C52.888 47.3627 50.6907 47.8 48.344 47.8C45.9973 47.8 44.1733 47.288 42.872 46.264C41.5707 45.2187 40.92 43.7253 40.92 41.784ZM47.704 43C48.152 43.0853 48.6533 43.128 49.208 43.128C51.5333 43.128 53.3467 42.296 54.648 40.632C55.9493 38.9467 56.6 36.8773 56.6 34.424C56.6 32.44 56.152 30.8613 55.256 29.688C54.36 28.5147 53.0693 27.928 51.384 27.928C51.128 27.928 50.7013 27.9707 50.104 28.056C49.9547 29.144 49.56 31.576 48.92 35.352C48.3013 39.1067 47.896 41.656 47.704 43ZM74.4998 22.744C74.4998 23.5547 74.0731 24.2587 73.2198 24.856C72.3664 25.432 71.3957 25.72 70.3077 25.72C69.2197 25.72 68.3557 25.5067 67.7157 25.08C67.0971 24.6533 66.7877 24.0773 66.7877 23.352C66.7877 22.3707 67.2464 21.6027 68.1637 21.048C69.0811 20.4933 70.0517 20.216 71.0758 20.216C72.0997 20.216 72.9211 20.4293 73.5398 20.856C74.1798 21.2827 74.4998 21.912 74.4998 22.744ZM68.2597 47.8C66.9371 47.8 65.9771 47.4693 65.3797 46.808C64.7824 46.1467 64.4837 45.144 64.4837 43.8C64.4837 42.4347 65.1664 38.7973 66.5317 32.888L64.7397 30.2C67.4064 28.6 69.5077 27.8 71.0437 27.8C71.9184 27.8 72.5371 27.992 72.8997 28.376C73.2624 28.7387 73.4438 29.336 73.4438 30.168C73.4438 30.488 73.0491 32.3653 72.2598 35.8C71.4704 39.2347 71.0758 41.688 71.0758 43.16C71.0758 44.632 71.4064 45.656 72.0677 46.232C70.8731 47.2773 69.6037 47.8 68.2597 47.8ZM78.682 53.368C77.3593 53.368 76.4313 53.0373 75.898 52.376C75.386 51.736 75.13 50.7973 75.13 49.56C75.13 48.344 75.386 45.88 75.898 42.168C76.4313 38.456 76.9433 35.288 77.434 32.664L75.642 30.104C76.9647 29.336 78.106 28.76 79.066 28.376C80.026 27.9707 80.9753 27.768 81.914 27.768C83.45 27.768 84.218 28.7813 84.218 30.808C84.218 31.0853 84.1753 31.6507 84.09 32.504L84.41 32.664C85.0287 31.128 85.9247 29.9333 87.098 29.08C88.2713 28.2053 89.6473 27.768 91.226 27.768C92.826 27.768 94.0953 28.4933 95.034 29.944C95.9727 31.3733 96.442 33.1547 96.442 35.288C96.442 38.1467 95.4393 40.7493 93.434 43.096C92.4527 44.248 91.1407 45.1867 89.498 45.912C87.8553 46.616 86.0207 46.968 83.994 46.968C83.3753 46.968 82.5647 46.9147 81.562 46.808C81.498 47.5547 81.466 48.248 81.466 48.888C81.466 50.2533 81.7967 51.224 82.458 51.8C81.2633 52.8453 80.0047 53.368 78.682 53.368ZM82.874 40.12L82.138 43.832C84.7193 43.768 86.778 42.9253 88.314 41.304C89.8713 39.6613 90.65 37.8693 90.65 35.928C90.65 34.9253 90.4473 34.1253 90.042 33.528C89.658 32.9093 89.0927 32.6 88.346 32.6C85.7007 32.6 83.8767 35.1067 82.874 40.12ZM101.198 27.096L99.406 24.536C102.073 22.9787 104.174 22.2 105.71 22.2C106.585 22.2 107.203 22.3813 107.566 22.744C107.929 23.0853 108.11 23.7467 108.11 24.728C108.11 25.688 107.63 28.4187 106.67 32.92C105.731 37.4213 105.262 40.5787 105.262 42.392C105.262 44.2053 105.593 45.4853 106.254 46.232C104.761 47.2773 103.406 47.8 102.19 47.8C100.974 47.8 100.078 47.4053 99.502 46.616C98.9473 45.8053 98.67 44.696 98.67 43.288C98.67 41.88 99.0647 39 99.854 34.648C100.643 30.296 101.091 27.7787 101.198 27.096ZM124.518 30.232C125.713 30.232 126.737 30.712 127.59 31.672C128.465 32.632 128.902 34.0293 128.902 35.864C128.902 37.6773 128.582 39.3627 127.942 40.92C127.302 42.456 126.46 43.7147 125.414 44.696C124.369 45.6773 123.185 46.4453 121.862 47C120.54 47.5333 119.185 47.8 117.798 47.8C115.004 47.8 112.796 47.032 111.174 45.496C109.553 43.96 108.742 41.9227 108.742 39.384C108.742 35.9493 109.841 33.1653 112.038 31.032C114.257 28.8773 117.073 27.8 120.486 27.8C121.254 27.8 122.022 27.8853 122.79 28.056C123.025 28.76 123.153 29.56 123.174 30.456C123.622 30.3067 124.07 30.232 124.518 30.232ZM120.582 34.68C120.582 34.0827 120.721 33.4107 120.998 32.664C121.297 31.9173 121.766 31.32 122.406 30.872C119.59 31.4693 117.649 32.6107 116.582 34.296C115.665 35.7467 115.206 37.24 115.206 38.776C115.206 40.312 115.516 41.5493 116.134 42.488C116.774 43.4053 117.585 43.864 118.566 43.864C120.742 43.864 122.278 42.4453 123.174 39.608C121.446 38.5413 120.582 36.8987 120.582 34.68ZM138.738 47H131.556V23.7273H139.056C141.313 23.7273 143.245 24.1932 144.851 25.125C146.457 26.0492 147.688 27.3788 148.544 29.1136C149.4 30.8409 149.828 32.9091 149.828 35.3182C149.828 37.7424 149.397 39.8295 148.533 41.5795C147.669 43.322 146.412 44.6629 144.76 45.6023C143.109 46.5341 141.101 47 138.738 47ZM134.374 44.5H138.556C140.48 44.5 142.075 44.1288 143.34 43.3864C144.605 42.6439 145.548 41.5871 146.169 40.2159C146.791 38.8447 147.101 37.2121 147.101 35.3182C147.101 33.4394 146.794 31.822 146.181 30.4659C145.567 29.1023 144.65 28.0568 143.431 27.3295C142.211 26.5947 140.692 26.2273 138.874 26.2273H134.374V44.5ZM159.43 47.3636C157.748 47.3636 156.298 46.9924 155.078 46.25C153.866 45.5 152.93 44.4545 152.271 43.1136C151.62 41.7652 151.294 40.197 151.294 38.4091C151.294 36.6212 151.62 35.0455 152.271 33.6818C152.93 32.3106 153.847 31.2424 155.021 30.4773C156.203 29.7045 157.582 29.3182 159.158 29.3182C160.067 29.3182 160.964 29.4697 161.851 29.7727C162.737 30.0758 163.544 30.5682 164.271 31.25C164.998 31.9242 165.578 32.8182 166.01 33.9318C166.442 35.0455 166.658 36.4167 166.658 38.0455V39.1818H153.203V36.8636H163.93C163.93 35.8788 163.733 35 163.339 34.2273C162.953 33.4545 162.4 32.8447 161.68 32.3977C160.968 31.9508 160.127 31.7273 159.158 31.7273C158.089 31.7273 157.165 31.9924 156.385 32.5227C155.612 33.0455 155.017 33.7273 154.601 34.5682C154.184 35.4091 153.976 36.3106 153.976 37.2727V38.8182C153.976 40.1364 154.203 41.2538 154.658 42.1705C155.12 43.0795 155.76 43.7727 156.578 44.25C157.396 44.7197 158.347 44.9545 159.43 44.9545C160.135 44.9545 160.771 44.8561 161.339 44.6591C161.915 44.4545 162.411 44.1515 162.828 43.75C163.245 43.3409 163.567 42.8333 163.794 42.2273L166.385 42.9545C166.112 43.8333 165.654 44.6061 165.01 45.2727C164.366 45.9318 163.57 46.447 162.623 46.8182C161.676 47.1818 160.612 47.3636 159.43 47.3636ZM182.399 29.5455L175.944 47H173.217L166.762 29.5455H169.671L174.489 43.4545H174.671L179.489 29.5455H182.399Z" fill="#3E424B"/>
<g clip-path="url(#clip0_13_10)">
<circle cx="22.5" cy="18.5" r="17.5" fill="#F9A557"/>
<path d="M17.9488 3.00024C19.8834 3.0143 21.951 3.64917 22.6553 5.47671C23.2222 5.65641 23.6914 5.91022 24.0174 6.21354C24.3434 6.51686 24.5151 6.8594 24.5159 7.20796C24.5149 7.72046 24.1447 8.21366 23.4801 8.58795C22.8155 8.96223 21.9061 9.18972 20.9355 9.22446C19.2064 9.64809 16.7652 8.85122 15.4362 6.76684C13.239 7.71606 10.5382 8.88989 9.90744 11.3743C8.63654 16.3791 11.7873 25.7727 13.6418 26.4087C18.9606 28.2331 24.8265 28.476 28.531 30.8706C32.8057 33.6338 35.5774 38.9027 39.4441 39.8996C42.5905 40.7108 48.8222 39.1938 49.5896 41.6583C49.7069 42.508 49.0025 43.2824 47.0589 41.6656C44.2582 42.4255 36.6888 45.1172 29.5609 39.4054C29.1111 39.6846 28.6482 39.9421 28.1738 40.1769C28.0768 42.8933 27.3821 45.8025 26.9507 48.5189H22.3897L22.8697 44.1764C22.3826 42.5848 21.7943 41.6722 21.4345 39.9438L19.7095 40.2818C19.9057 41.2832 20.0908 41.4817 20.4476 42.4388C19.4041 42.4882 18.2145 42.432 17.1376 42.3387C17.891 40.6033 18.2983 38.2821 18.689 36.7361L16.9849 36.3054C16.4461 38.4368 15.5843 41.3979 15.2287 42.1937C14.9115 42.9037 14.1249 48.5189 14.1249 48.5189H10.4899L9.75597 40.1458C6.96349 38.4936 6.03527 36.5199 5.49425 34.2655C3.60382 26.3898 3.16163 17.7861 6.2216 10.4528C8.13712 5.86245 11.8237 4.51899 15.1938 3.42055C15.9226 3.16176 16.9168 2.99272 17.9488 3.00024ZM5.80138 38.8725C6.40793 39.6282 7.16173 40.3653 8.08556 41.0476C8.27951 43.4551 8.45998 46.0901 8.65988 48.5189H5.45998C5.45998 48.5189 5.65236 42.9602 5.80138 38.8725ZM16.9905 44.0471C18.1458 44.1611 19.5004 44.1694 20.8804 44.0757L20.4079 48.5189H16.3272L16.9905 44.0471Z" fill="#C1DBDC" stroke="#3E424B"/>
<circle cx="0.5" cy="0.5" r="0.5" transform="matrix(1 0 0 -1 19 6)" fill="#3E424B"/>
</g>
<defs>
<clipPath id="clip0_13_10">
<rect width="50" height="50" fill="white"/>
</clipPath>
</defs>
</svg>
