<svg width="148" height="78" viewBox="0 0 148 78" fill="none" xmlns="http://www.w3.org/2000/svg">
<g clip-path="url(#clip0_15_7)">
<circle cx="71.5" cy="18.5" r="17.5" fill="#F9A557"/>
<path d="M66.9488 3.00024C68.8834 3.0143 70.951 3.64917 71.6553 5.47671C72.2222 5.65641 72.6914 5.91022 73.0174 6.21354C73.3434 6.51686 73.5151 6.8594 73.5159 7.20796C73.5149 7.72046 73.1447 8.21366 72.4801 8.58795C71.8155 8.96223 70.9061 9.18972 69.9355 9.22446C68.2064 9.64809 65.7652 8.85122 64.4362 6.76684C62.239 7.71606 59.5382 8.88989 58.9074 11.3743C57.6365 16.3791 60.7873 25.7727 62.6418 26.4087C67.9606 28.2331 73.8265 28.476 77.531 30.8706C81.8057 33.6338 84.5774 38.9027 88.4441 39.8996C91.5905 40.7108 97.8222 39.1938 98.5896 41.6583C98.7069 42.508 98.0025 43.2824 96.0589 41.6656C93.2582 42.4255 85.6888 45.1172 78.5609 39.4054C78.1111 39.6846 77.6482 39.9421 77.1738 40.1769C77.0768 42.8933 76.3821 45.8025 75.9507 48.5189H71.3897L71.8697 44.1764C71.3826 42.5848 70.7943 41.6722 70.4345 39.9438L68.7095 40.2818C68.9057 41.2832 69.0908 41.4817 69.4476 42.4388C68.4041 42.4882 67.2145 42.432 66.1376 42.3387C66.891 40.6033 67.2983 38.2821 67.689 36.7361L65.9849 36.3054C65.4461 38.4368 64.5843 41.3979 64.2287 42.1937C63.9115 42.9037 63.1249 48.5189 63.1249 48.5189H59.4899L58.756 40.1458C55.9635 38.4936 55.0353 36.5199 54.4943 34.2655C52.6038 26.3898 52.1616 17.7861 55.2216 10.4528C57.1371 5.86245 60.8237 4.51899 64.1938 3.42055C64.9226 3.16176 65.9168 2.99272 66.9488 3.00024ZM54.8014 38.8725C55.4079 39.6282 56.1617 40.3653 57.0856 41.0476C57.2795 43.4551 57.46 46.0901 57.6599 48.5189H54.46C54.46 48.5189 54.6524 42.9602 54.8014 38.8725ZM65.9905 44.0471C67.1458 44.1611 68.5004 44.1694 69.8804 44.0757L69.4079 48.5189H65.3272L65.9905 44.0471Z" fill="#C1DBDC" stroke="#3E424B"/>
<circle cx="0.5" cy="0.5" r="0.5" transform="matrix(1 0 0 -1 68 6)" fill="#3E424B"/>
</g>
<path d="M16.56 41C20.08 41 22.72 41.4133 24.48 42.24C26.24 43.04 27.12 44.3333 27.12 46.12C27.12 47.88 26.5733 49.2267 25.48 50.16C24.4133 51.0667 23.1867 51.52 21.8 51.52C20.4133 51.52 19.16 51.1733 18.04 50.48C16.9467 49.76 16.1867 48.8133 15.76 47.64C14.7733 47.64 13.8267 47.9733 12.92 48.64C12.04 49.28 11.48 50.12 11.24 51.16C16.52 52.44 20.3067 53.9333 22.6 55.64C24.8933 57.3467 26.04 59.5333 26.04 62.2C26.04 64.8667 24.8267 67 22.4 68.6C20 70.2 16.7467 71 12.64 71C8.56 71 5.66667 70.44 3.96 69.32C2.25333 68.2 1.4 66.72 1.4 64.88C1.4 63.04 1.97333 61.3467 3.12 59.8C3.68 61 4.74667 62.08 6.32 63.04C7.92 64 9.49333 64.48 11.04 64.48C13.8933 64.48 15.7067 63.5733 16.48 61.76C12.0533 61.1733 8.68 59.9467 6.36 58.08C4.04 56.1867 2.88 53.9067 2.88 51.24C2.88 49.4533 3.36 47.8667 4.32 46.48C5.28 45.0667 6.50667 43.9867 8 43.24C10.9333 41.7467 13.7867 41 16.56 41ZM37.8351 45.744C37.8351 46.5547 37.4084 47.2587 36.5551 47.856C35.7017 48.432 34.7311 48.72 33.6431 48.72C32.5551 48.72 31.6911 48.5067 31.0511 48.08C30.4324 47.6533 30.1231 47.0773 30.1231 46.352C30.1231 45.3707 30.5817 44.6027 31.4991 44.048C32.4164 43.4933 33.3871 43.216 34.4111 43.216C35.4351 43.216 36.2564 43.4293 36.8751 43.856C37.5151 44.2827 37.8351 44.912 37.8351 45.744ZM31.5951 70.8C30.2724 70.8 29.3124 70.4693 28.7151 69.808C28.1177 69.1467 27.8191 68.144 27.8191 66.8C27.8191 65.4347 28.5017 61.7973 29.8671 55.888L28.0751 53.2C30.7417 51.6 32.8431 50.8 34.3791 50.8C35.2537 50.8 35.8724 50.992 36.2351 51.376C36.5977 51.7387 36.7791 52.336 36.7791 53.168C36.7791 53.488 36.3844 55.3653 35.5951 58.8C34.8057 62.2347 34.4111 64.688 34.4111 66.16C34.4111 67.632 34.7417 68.656 35.4031 69.232C34.2084 70.2773 32.9391 70.8 31.5951 70.8ZM44.3533 61.04C44.3533 62.128 44.652 63.0133 45.2493 63.696C45.868 64.3573 46.6253 64.688 47.5213 64.688C48.7373 64.688 49.8253 64.112 50.7853 62.96C51.148 61.0613 51.6173 58.064 52.1933 53.968C49.804 53.968 47.8946 54.6613 46.4653 56.048C45.0573 57.4347 44.3533 59.0987 44.3533 61.04ZM52.8333 73.168C51.8306 74.512 50.572 75.568 49.0573 76.336C47.5426 77.1253 45.9426 77.52 44.2573 77.52C42.5933 77.52 41.2493 77.2 40.2253 76.56C39.2226 75.9413 38.7213 75.0987 38.7213 74.032C38.7213 72.9653 39.1586 71.8453 40.0333 70.672C41.0146 72.1227 42.4866 72.848 44.4493 72.848C45.7293 72.848 46.9133 72.2933 48.0013 71.184C49.1106 70.096 49.8466 68.496 50.2093 66.384L49.8893 66.224C48.3746 68.4427 46.4333 69.552 44.0653 69.552C42.2733 69.552 40.8653 68.8587 39.8413 67.472C38.8173 66.0853 38.3053 64.24 38.3053 61.936C38.3053 59.7173 38.9133 57.6907 40.1293 55.856C41.516 53.744 43.4466 52.2827 45.9213 51.472C47.2866 51.024 48.588 50.8 49.8253 50.8C51.0626 50.8 52.108 50.8853 52.9613 51.056C53.0893 51.632 53.164 52.1547 53.1853 52.624C54.188 51.9413 55.2013 51.6 56.2253 51.6C57.6973 51.6 58.4333 52.3573 58.4333 53.872C58.4333 55.3867 58.3373 56.944 58.1453 58.544C57.9533 60.1227 57.6546 61.8187 57.2493 63.632C56.844 65.4453 56.2573 67.1627 55.4893 68.784C54.7426 70.384 53.8573 71.8453 52.8333 73.168ZM64.0178 70.8C62.7591 70.8 61.8311 70.4693 61.2338 69.808C60.6365 69.1467 60.3378 68.272 60.3378 67.184C60.3378 66.096 60.5511 64.3253 60.9778 61.872C61.4258 59.4187 61.8845 57.1787 62.3538 55.152L60.6898 52.592C62.8018 51.3973 64.7538 50.8 66.5458 50.8C68.3378 50.8 69.2338 51.6107 69.2338 53.232C69.2338 54.2987 68.9885 55.3867 68.4978 56.496L68.8178 56.656C71.1005 52.752 74.0018 50.8 77.5218 50.8C80.1031 50.8 81.3938 52.0907 81.3938 54.672C81.3938 55.7813 81.0738 57.6587 80.4338 60.304C79.8151 62.9493 79.5058 64.944 79.5058 66.288C79.5058 67.632 79.7298 68.6133 80.1778 69.232C79.0471 70.2773 77.8525 70.8 76.5938 70.8C74.1405 70.8 72.9138 69.4773 72.9138 66.832C72.9138 65.8507 73.2338 64.1867 73.8738 61.84C74.5138 59.4933 74.8338 57.968 74.8338 57.264C74.8338 56.304 74.4711 55.824 73.7458 55.824C73.1485 55.824 72.4658 56.0907 71.6978 56.624C70.9298 57.136 70.1831 57.84 69.4578 58.736C68.7538 59.6107 68.1565 60.7307 67.6658 62.096C67.1751 63.44 66.9298 64.816 66.9298 66.224C66.9298 67.6107 67.1538 68.6133 67.6018 69.232C66.4711 70.2773 65.2765 70.8 64.0178 70.8ZM105.228 69.392C103.948 70.352 102.689 70.832 101.452 70.832C100.214 70.832 99.2331 70.512 98.5078 69.872C97.7825 69.232 97.4198 68.272 97.4198 66.992C97.4198 66.6293 97.4305 66.352 97.4518 66.16L97.1318 66.064C95.0198 69.2213 92.1825 70.8 88.6198 70.8C85.1851 70.8 83.4678 68.9867 83.4678 65.36C83.4678 64.144 83.6385 62.5333 83.9798 60.528C84.3211 58.5013 84.6091 56.7947 84.8438 55.408C85.0998 54 85.2705 53.04 85.3558 52.528L83.6598 49.104C85.0038 48.336 86.1665 47.76 87.1478 47.376C88.1505 46.992 89.1531 46.8 90.1558 46.8C91.1585 46.8 91.8305 47.0667 92.1718 47.6C92.5345 48.112 92.7158 48.7307 92.7158 49.456C92.7158 50.1813 92.3531 52.5067 91.6278 56.432C90.9238 60.3573 90.5718 62.6507 90.5718 63.312C90.5718 64.9973 91.1478 65.84 92.2998 65.84C93.1531 65.84 94.1238 65.296 95.2118 64.208C96.2998 63.12 97.1851 61.6267 97.8678 59.728C97.4198 58.4267 97.1958 57.0827 97.1958 55.696C97.1958 53.2213 97.8038 51.12 99.0198 49.392C100.257 47.664 101.996 46.8 104.236 46.8C105.473 46.8 106.465 47.0027 107.212 47.408C107.02 48.56 106.646 50.6507 106.092 53.68C104.876 60.1013 104.268 63.792 104.268 64.752C104.268 66.8213 104.588 68.368 105.228 69.392ZM111.729 76.368C110.406 76.368 109.478 76.0373 108.945 75.376C108.433 74.736 108.177 73.7973 108.177 72.56C108.177 71.344 108.433 68.88 108.945 65.168C109.478 61.456 109.99 58.288 110.481 55.664L108.689 53.104C110.011 52.336 111.153 51.76 112.113 51.376C113.073 50.9707 114.022 50.768 114.961 50.768C116.497 50.768 117.265 51.7813 117.265 53.808C117.265 54.0853 117.222 54.6507 117.137 55.504L117.457 55.664C118.075 54.128 118.971 52.9333 120.145 52.08C121.318 51.2053 122.694 50.768 124.273 50.768C125.873 50.768 127.142 51.4933 128.081 52.944C129.019 54.3733 129.489 56.1547 129.489 58.288C129.489 61.1467 128.486 63.7493 126.481 66.096C125.499 67.248 124.187 68.1867 122.545 68.912C120.902 69.616 119.067 69.968 117.041 69.968C116.422 69.968 115.611 69.9147 114.609 69.808C114.545 70.5547 114.513 71.248 114.513 71.888C114.513 73.2533 114.843 74.224 115.505 74.8C114.31 75.8453 113.051 76.368 111.729 76.368ZM115.921 63.12L115.185 66.832C117.766 66.768 119.825 65.9253 121.361 64.304C122.918 62.6613 123.697 60.8693 123.697 58.928C123.697 57.9253 123.494 57.1253 123.089 56.528C122.705 55.9093 122.139 55.6 121.393 55.6C118.747 55.6 116.923 58.1067 115.921 63.12Z" fill="#3E424B"/>
<defs>
<clipPath id="clip0_15_7">
<rect width="50" height="50" fill="white" transform="translate(49)"/>
</clipPath>
</defs>
</svg>
